# xmcd CD database file
# Copyright (C) 1995-1998 Ti Kan
#
# Track frame offsets:
#	150
#	19602
#	49167
#	80315
#	104697
#	121035
#	135267
#	155607
#	180112
#	198457
#
# Disc length: 3010 seconds
#
# Revision: 1
# Processed by: cddbd v1.4b41PL2 Copyright (c) Steve Scherf et al.
# Submitted via: CDex 1.40Beta3
#
DISCID=720bc00a
DTITLE=Nhu Quynh - Tinh Khuc Que Huong
DYEAR=1900
DGENRE=Blues
TTITLE0=Trong Com
TTITLE1=Me Toi
TTITLE2=Viet Nam Ve Trong Noi Nho
TTITLE3=Co Lang Gieng
TTITLE4=Noi Buon Gac Tro
TTITLE5=Co Tham Ve Lang
TTITLE6=Dem Tan Ben Ngu
TTITLE7=Xin Anh Giu Tron Tinh Que
TTITLE8=Noi Buon Hoa Phuong
TTITLE9=Chuyen Do Vi Tuyen
EXTD=ID3G:   0
EXTT0=
EXTT1=
EXTT2=
EXTT3=
EXTT4=
EXTT5=
EXTT6=
EXTT7=
EXTT8=
EXTT9=
PLAYORDER=
